<?xml version="1.0" standalone="no"?>
<!DOCTYPE svg PUBLIC "-//W3C//DTD SVG 20010904//EN"
 "http://www.w3.org/TR/2001/REC-SVG-20010904/DTD/svg10.dtd">
<svg version="1.0" xmlns="http://www.w3.org/2000/svg"
 width="1280.000000pt" height="1280.000000pt" viewBox="0 0 1280.000000 1280.000000"
 preserveAspectRatio="xMidYMid meet">
<metadata>
Created by potrace 1.15, written by Peter Selinger 2001-2017
</metadata>
<g transform="translate(0.000000,1280.000000) scale(0.100000,-0.100000)"
fill="#f44336" stroke="none">
<path d="M11330 12153 c-819 -12 -2427 -66 -3385 -113 -110 -6 -339 -17 -510
-25 -1574 -78 -3685 -213 -5759 -370 -415 -32 -542 -45 -429 -45 22 0 260 -9
529 -20 1551 -62 2171 -74 3694 -67 701 3 1471 10 1710 16 1145 27 2796 54
4058 66 l592 6 0 -658 c0 -1115 -34 -3029 -80 -4483 -25 -805 -32 -1019 -39
-1195 -4 -104 -9 1249 -9 3008 l-2 3197 -5370 0 -5370 0 -2 -2672 c0 -1483 -5
-2562 -9 -2423 -21 702 -46 2762 -51 4264 l-3 894 85 -2 c47 -1 96 2 110 8 19
7 -6 10 -97 10 -92 1 -123 -2 -123 -11 0 -7 -7 -143 -15 -303 -40 -796 -72
-1687 -97 -2710 -16 -648 -16 -3667 0 -4680 6 -401 16 -1130 22 -1620 6 -490
13 -968 16 -1064 l6 -174 477 6 c262 4 1241 10 2176 13 2815 11 4619 -22 7864
-141 376 -14 685 -24 688 -22 2 2 15 256 28 563 30 682 63 1390 115 2509 71
1516 116 2539 145 3270 8 209 17 439 20 510 9 209 34 978 45 1395 22 824 30
1298 37 2168 l6 902 -459 -2 c-252 -1 -529 -3 -614 -5z"/>
<path d="M12166 1358 c-12 -357 -25 -640 -30 -645 -3 -3 -157 0 -343 6 -617
21 -1310 31 -2063 30 l-745 -2 345 -17 c449 -23 1020 -48 1390 -60 450 -15
1466 -25 1471 -14 8 16 -2 904 -10 904 -4 0 -11 -91 -15 -202z"/>
<path d="M3345 859 c-1152 -14 -2316 -54 -2533 -85 -384 -56 2077 -65 3763
-14 442 13 768 26 1460 56 1236 54 1260 51 -510 51 -880 0 -1861 -4 -2180 -8z"/>
</g>
</svg>
