<svg width="766" height="766" viewBox="0 0 766 766" fill="none" xmlns="http://www.w3.org/2000/svg">
<circle cx="383" cy="383" r="383" fill="white"/>
<path d="M335.906 135.006C338.476 135.012 341.045 135.016 343.614 135.019C349.62 135.029 355.626 135.053 361.632 135.083C368.486 135.117 375.34 135.133 382.194 135.148C396.257 135.179 410.32 135.232 424.383 135.299C423.133 139.115 421.804 142.735 420.063 146.354C419.614 147.29 419.165 148.227 418.703 149.191C418.226 150.176 417.749 151.16 417.258 152.174C416.765 153.198 416.272 154.221 415.765 155.276C412.396 162.254 408.977 169.205 405.486 176.123C403.363 180.335 401.253 184.553 399.145 188.772C398.598 189.865 398.598 189.865 398.041 190.981C397.155 192.754 396.269 194.526 395.383 196.299C393.805 196.308 393.805 196.308 392.194 196.317C382.207 196.374 372.22 196.447 362.234 196.535C357.101 196.579 351.969 196.619 346.836 196.646C341.869 196.672 336.902 196.712 331.936 196.762C330.055 196.779 328.174 196.79 326.292 196.797C287.613 196.939 252.068 209.416 222.383 234.299C221.537 235.008 221.537 235.008 220.673 235.731C206.857 247.489 196.124 261.723 187.349 277.556C186.449 279.18 185.522 280.789 184.594 282.397C176.607 297.113 171.437 314.03 167.945 330.362C167.806 331.012 167.667 331.663 167.523 332.333C164.634 347.313 164.034 362.37 164.067 377.584C164.07 380.598 164.047 383.611 164.022 386.625C163.865 435.021 178.034 484.336 211.946 519.795C212.903 520.796 213.854 521.803 214.8 522.815C234.954 544.338 261.679 558.826 290.383 565.299C291.251 565.495 292.118 565.691 293.012 565.893C304.118 568.257 315.162 568.469 326.478 568.524C328.085 568.535 329.693 568.546 331.3 568.558C336.541 568.595 341.782 568.62 347.024 568.643C347.918 568.647 348.811 568.651 349.732 568.655C358.169 568.691 366.606 568.723 375.042 568.744C385.809 568.772 396.575 568.823 407.341 568.904C414.929 568.96 422.516 568.989 430.104 568.998C434.63 569.005 439.156 569.023 443.682 569.07C447.934 569.113 452.185 569.124 456.437 569.109C457.996 569.11 459.554 569.122 461.113 569.147C469.239 569.547 469.239 569.547 476.602 566.791C478.151 565.024 479.274 563.364 480.383 561.299C481.052 560.318 481.721 559.337 482.41 558.326C483.041 557.307 483.671 556.287 484.32 555.237C488.506 548.573 492.89 542.052 497.32 535.549C497.984 534.572 498.647 533.595 499.33 532.588C500.267 531.215 500.267 531.215 501.223 529.815C501.783 528.993 502.344 528.171 502.922 527.324C504.383 525.299 504.383 525.299 506.383 523.299C508.825 523.059 508.825 523.059 511.934 523.072C513.676 523.072 513.676 523.072 515.453 523.073C516.711 523.083 517.969 523.093 519.266 523.104C520.55 523.107 521.835 523.109 523.158 523.112C526.575 523.12 529.991 523.14 533.407 523.162C536.892 523.182 540.378 523.191 543.863 523.201C550.703 523.223 557.543 523.257 564.383 523.299C562.888 528.277 560.789 532.683 558.402 537.272C558.002 538.052 557.601 538.831 557.187 539.635C555.861 542.212 554.528 544.787 553.195 547.362C551.781 550.106 550.367 552.85 548.954 555.595C547.965 557.515 546.976 559.434 545.986 561.353C542.354 568.4 538.749 575.459 535.156 582.526C534.129 584.544 533.102 586.562 532.075 588.58C530.588 591.502 529.102 594.424 527.619 597.348C512.471 627.211 512.471 627.211 509.383 630.299C506.986 630.406 504.618 630.447 502.22 630.446C501.461 630.45 500.702 630.454 499.92 630.457C497.356 630.469 494.792 630.472 492.228 630.476C490.397 630.482 488.565 630.489 486.733 630.496C480.687 630.517 474.64 630.527 468.594 630.537C466.505 630.541 464.417 630.546 462.328 630.55C452.488 630.569 442.648 630.583 432.809 630.591C421.513 630.601 410.218 630.627 398.923 630.668C390.164 630.698 381.404 630.713 372.644 630.716C367.43 630.718 362.216 630.727 357.002 630.753C318.412 630.931 280.374 628.908 244.383 613.299C243.707 613.01 243.03 612.72 242.333 612.422C231.378 607.672 221.298 601.934 211.383 595.299C210.676 594.83 209.969 594.36 209.241 593.876C199.722 587.507 190.987 580.72 182.81 572.696C181.471 571.386 180.11 570.099 178.746 568.815C172.388 562.706 167.037 556.029 161.718 549.027C160.486 547.432 159.206 545.875 157.922 544.323C121.511 499.663 107.618 436.874 108.008 380.549C108.012 379.364 108.017 378.178 108.021 376.957C108.094 359.91 108.425 343.128 111.383 326.299C111.544 325.322 111.705 324.344 111.871 323.337C115.732 300.437 123.141 278.134 133.383 257.299C133.717 256.607 134.052 255.916 134.396 255.203C144.113 235.285 157.05 217.28 172.883 201.799C174.903 199.779 176.76 197.753 178.57 195.549C181.814 191.677 185.496 188.512 189.383 185.299C189.895 184.87 190.406 184.44 190.934 183.998C232.586 149.156 282.259 134.656 335.906 135.006Z" fill="#FF2929"/>
<path d="M513.634 164.049C519.625 168.951 524.989 174.466 526.384 182.299C527.316 192.705 526.918 201.527 520.326 209.92C517.184 213.485 514.159 216.745 510.283 219.515C506.189 223.653 506.63 228.441 506.55 233.988C506.561 235.414 506.574 236.841 506.587 238.268C506.583 239.75 506.577 241.233 506.57 242.715C506.561 245.822 506.574 248.928 506.602 252.035C506.636 255.978 506.617 259.919 506.581 263.862C506.559 266.927 506.566 269.991 506.581 273.056C506.585 274.507 506.581 275.958 506.566 277.409C506.496 286.681 507.877 293.915 511.9 302.217C514.162 306.915 515.623 311.82 517.134 316.799C517.712 318.664 518.29 320.528 518.869 322.393C519.128 323.25 519.388 324.107 519.656 324.991C520.251 326.877 520.938 328.735 521.65 330.58C523.248 336.498 520.67 341.116 517.779 346.174C513.807 353.369 510.343 360.715 506.999 368.219C505.389 371.83 503.761 375.434 502.134 379.037C501.813 379.75 501.491 380.463 501.16 381.198C498.383 387.336 495.503 393.421 492.572 399.487C489.13 406.616 485.769 413.772 482.509 420.987C473.228 441.527 463.641 461.926 454.028 482.314C453.544 483.341 453.544 483.341 453.05 484.389C452.181 486.233 451.311 488.076 450.441 489.92C447.405 496.371 444.398 502.837 441.384 509.299C423.485 509.346 405.587 509.381 387.688 509.403C379.376 509.413 371.064 509.427 362.752 509.45C355.502 509.47 348.253 509.483 341.003 509.487C337.169 509.49 333.335 509.496 329.501 509.511C325.882 509.524 322.263 509.528 318.644 509.525C316.704 509.526 314.763 509.537 312.823 509.548C287.083 509.488 264.018 502.115 245.509 483.924C240.225 478.54 235.936 472.989 232.384 466.299C231.803 465.216 231.221 464.134 230.622 463.018C226.949 455.842 224.323 448.471 222.072 440.737C221.829 439.911 221.587 439.086 221.337 438.235C217.944 425.949 217.069 413.641 217.083 400.944C217.079 399.507 217.075 398.07 217.07 396.634C217.063 393.643 217.063 390.652 217.068 387.661C217.073 384.637 217.066 381.613 217.048 378.589C216.839 343.559 220.136 311.256 245.572 284.674C264.843 266.141 287.616 259.114 313.857 259.166C314.938 259.165 316.018 259.164 317.132 259.163C319.415 259.163 321.699 259.165 323.982 259.169C327.385 259.174 330.788 259.169 334.191 259.162C403.148 259.14 403.148 259.14 421.408 276.053C429.814 285.606 433.417 297.189 436.384 309.299C436.565 310.017 436.746 310.735 436.933 311.474C437.56 315.397 437.527 319.247 437.517 323.213C437.518 324.065 437.519 324.916 437.52 325.793C437.521 327.587 437.519 329.381 437.515 331.174C437.509 333.922 437.514 336.669 437.521 339.416C437.52 341.161 437.519 342.906 437.517 344.651C437.519 345.473 437.521 346.295 437.523 347.141C437.509 350.448 437.437 353.14 436.384 356.299C419.038 357.264 401.752 357.419 384.384 357.299C384.364 356.457 384.345 355.615 384.324 354.748C384.246 351.596 384.159 348.445 384.067 345.294C384.029 343.935 383.994 342.576 383.962 341.217C383.916 339.254 383.857 337.29 383.798 335.327C383.767 334.148 383.735 332.97 383.703 331.756C383.305 327.437 382.712 323.298 380.27 319.622C377.39 317.602 374.437 317.865 371.042 317.879C369.924 317.867 369.924 317.867 368.784 317.854C366.316 317.83 363.848 317.829 361.38 317.83C359.66 317.823 357.939 317.816 356.219 317.807C352.606 317.794 348.994 317.792 345.382 317.798C340.774 317.804 336.167 317.774 331.56 317.733C328.002 317.707 324.444 317.704 320.886 317.708C319.189 317.706 317.492 317.697 315.795 317.679C306.34 317.59 298.491 317.803 290.384 323.299C289.477 323.856 288.569 324.413 287.634 324.987C276.715 336.209 274.752 350.229 274.783 365.139C274.775 366.754 274.766 368.368 274.757 369.983C274.742 373.351 274.742 376.718 274.753 380.086C274.764 384.371 274.73 388.654 274.684 392.938C274.654 396.268 274.653 399.598 274.659 402.927C274.658 404.506 274.648 406.084 274.628 407.662C274.488 419.999 276.915 430.466 285.634 439.776C294.609 447.589 305.155 450.788 316.885 450.656C317.776 450.658 318.667 450.66 319.585 450.662C322.493 450.665 325.401 450.646 328.31 450.627C330.346 450.624 332.383 450.622 334.419 450.622C338.67 450.617 342.92 450.603 347.171 450.58C352.616 450.552 358.061 450.541 363.506 450.537C367.703 450.533 371.901 450.523 376.098 450.511C378.107 450.505 380.115 450.5 382.123 450.497C384.925 450.49 387.728 450.476 390.53 450.46C391.356 450.459 392.183 450.458 393.035 450.457C396.921 450.428 400.618 450.385 404.384 449.299C405.805 447.785 405.805 447.785 406.724 445.717C407.136 444.91 407.548 444.103 407.972 443.271C408.417 442.352 408.863 441.433 409.322 440.487C409.815 439.504 410.309 438.521 410.818 437.509C411.987 435.177 413.149 432.841 414.302 430.501C416.704 425.639 419.155 420.802 421.603 415.963C430.699 397.947 439.659 379.895 448.048 361.537C450.637 355.884 453.291 350.265 455.97 344.655C456.583 343.369 456.583 343.369 457.209 342.058C458.838 338.646 460.468 335.234 462.105 331.825C464.041 327.793 465.952 323.753 467.827 319.692C469.632 315.806 471.582 312.026 473.599 308.246C482.825 290.302 484.192 274.967 483.733 255.258C483.684 252.268 483.715 249.281 483.745 246.291C483.766 243.379 483.743 240.468 483.705 237.556C483.692 236.183 483.691 234.81 483.703 233.437C483.872 225.649 483.872 225.649 480.415 219C478.082 217.127 478.082 217.127 475.643 215.698C469.466 211.872 465.294 205.164 463.384 198.299C462.164 187.954 463.435 179.919 469.384 171.299C481.377 156.272 497.283 155.245 513.634 164.049Z" fill="#FF2929"/>
<path d="M591.753 320.059C593.239 320.065 593.239 320.065 594.754 320.072C596.436 320.072 596.436 320.072 598.151 320.073C599.366 320.083 600.58 320.093 601.832 320.104C603.072 320.107 604.312 320.109 605.59 320.112C608.888 320.122 612.185 320.14 615.483 320.162C618.848 320.182 622.213 320.191 625.578 320.201C632.181 320.224 638.784 320.257 645.387 320.299C644.212 323.917 642.963 327.446 641.461 330.94C641.083 331.827 640.706 332.715 640.317 333.629C639.702 335.075 639.702 335.075 639.074 336.549C634.846 346.573 630.917 356.685 627.074 366.862C622.131 379.936 616.886 392.85 611.43 405.718C611.161 406.355 610.891 406.991 610.613 407.647C610.344 408.282 610.074 408.917 609.797 409.572C606.878 416.472 604.067 423.415 601.262 430.362C593.858 448.675 586.301 466.926 578.744 485.177C575.28 493.546 571.835 501.923 568.387 510.299C549.577 510.299 530.767 510.299 511.387 510.299C504.981 489.481 499.373 465.5 489.039 430.151C496.852 411.001 506 392 514.387 373.299C521 388.5 532.5 417 541.387 439.299C544.972 430.844 548.355 422.318 551.661 413.751C558.546 395.921 565.574 378.148 572.637 360.388C573.405 358.453 574.173 356.519 574.941 354.584C575.312 353.65 575.683 352.716 576.066 351.754C577.973 346.937 579.844 342.11 581.665 337.26C582.03 336.289 582.394 335.319 582.77 334.319C583.462 332.47 584.149 330.62 584.831 328.768C585.292 327.535 585.292 327.535 585.762 326.277C586.029 325.555 586.295 324.832 586.57 324.088C587.822 321.346 588.718 320.367 591.753 320.059Z" fill="#FF2929"/>
<path d="M652.091 248.279C651.656 256.406 649.271 263.185 643.597 269.182C641.816 270.737 641.816 270.737 640.187 271.92C634.589 276.189 631.624 281.051 628.441 287.174C619.536 304.303 612.923 305.546 595.379 305.299C597.19 298.545 599.563 292.112 602.221 285.655C603.758 281.91 605.143 278.154 606.379 274.299C605.637 274.053 604.896 273.807 604.132 273.553C597.696 270.622 592.566 263.523 590.004 257.014C575.993 210 650.495 192.5 652.091 248.279Z" fill="#FF2929"/>
<circle cx="618.5" cy="526.5" r="11.5" fill="white"/>
</svg>
